# MagicaVoxel @ Ephtracy

# group
g Lounchtable

# material
mtllib Lounchtable.mtl
usemtl palette

# normals
vn -1 0 0
vn 1 0 0
vn 0 0 1
vn 0 0 -1
vn 0 -1 0
vn 0 1 0

# texcoords
vt 0.978516 0.5
vt 0.986328 0.5

# verts
v -50 0 50
v -50 0 -50
v -50 1 50
v -50 1 17
v -50 1 3
v -50 1 -4
v -50 1 -19
v -50 1 -50
v -50 126 17
v -50 126 3
v -50 126 -4
v -50 126 -19
v -47 1 32
v -47 1 17
v -47 3 -19
v -47 3 -23
v -47 67 -19
v -47 67 -23
v -47 69 32
v -47 69 17
v -31 1 44
v -31 1 -44
v -31 2 44
v -31 2 -44
v -38 1 32
v -38 1 17
v -38 3 -19
v -38 3 -23
v -38 67 -19
v -38 67 -23
v -38 69 32
v -38 69 17
v -34 1 17
v -34 1 3
v -34 1 -4
v -34 1 -19
v -34 126 17
v -34 126 3
v -34 126 -4
v -34 126 -19
v 45 1 44
v 45 1 -44
v 45 2 44
v 45 2 -44
v 50 0 50
v 50 0 -50
v 50 1 50
v 50 1 -50
v -50 0 50
v -50 1 50
v 50 0 50
v 50 1 50
v -31 1 44
v -31 2 44
v 45 1 44
v 45 2 44
v -47 1 32
v -47 69 32
v -38 1 32
v -38 69 32
v -50 1 17
v -50 126 17
v -47 1 17
v -47 69 17
v -38 1 17
v -38 69 17
v -34 1 17
v -34 126 17
v -50 1 -4
v -50 126 -4
v -34 1 -4
v -34 126 -4
v -50 1 3
v -50 126 3
v -34 1 3
v -34 126 3
v -50 1 -19
v -50 126 -19
v -47 3 -19
v -47 67 -19
v -38 3 -19
v -38 67 -19
v -34 1 -19
v -34 126 -19
v -47 3 -23
v -47 67 -23
v -38 3 -23
v -38 67 -23
v -31 1 -44
v -31 2 -44
v 45 1 -44
v 45 2 -44
v -50 0 -50
v -50 1 -50
v 50 0 -50
v 50 1 -50
v -50 0 50
v 50 0 50
v -50 0 -50
v 50 0 -50
v -47 3 -19
v -38 3 -19
v -47 3 -23
v -38 3 -23
v -50 1 50
v 50 1 50
v -31 1 44
v 45 1 44
v -47 1 32
v -38 1 32
v -50 1 17
v -47 1 17
v -38 1 17
v -34 1 17
v -50 1 3
v -34 1 3
v -50 1 -4
v -34 1 -4
v -50 1 -19
v -34 1 -19
v -31 1 -44
v 45 1 -44
v -50 1 -50
v 50 1 -50
v -31 2 44
v 45 2 44
v -31 2 -44
v 45 2 -44
v -47 67 -19
v -38 67 -19
v -47 67 -23
v -38 67 -23
v -47 69 32
v -38 69 32
v -47 69 17
v -38 69 17
v -50 126 17
v -34 126 17
v -50 126 3
v -34 126 3
v -50 126 -4
v -34 126 -4
v -50 126 -19
v -34 126 -19

# faces
f 3/1/1 2/1/1 1/1/1
f 4/1/1 2/1/1 3/1/1
f 5/1/1 2/1/1 4/1/1
f 6/1/1 2/1/1 5/1/1
f 7/1/1 2/1/1 6/1/1
f 8/1/1 2/1/1 7/1/1
f 9/1/1 5/1/1 4/1/1
f 10/1/1 5/1/1 9/1/1
f 11/1/1 7/1/1 6/1/1
f 12/1/1 7/1/1 11/1/1
f 17/2/1 16/2/1 15/2/1
f 18/2/1 16/2/1 17/2/1
f 19/2/1 14/2/1 13/2/1
f 20/2/1 14/2/1 19/2/1
f 23/2/1 22/2/1 21/2/1
f 24/2/1 22/2/1 23/2/1
f 27/2/2 28/2/2 29/2/2
f 29/2/2 28/2/2 30/2/2
f 25/2/2 26/2/2 31/2/2
f 31/2/2 26/2/2 32/2/2
f 33/1/2 34/1/2 37/1/2
f 37/1/2 34/1/2 38/1/2
f 35/1/2 36/1/2 39/1/2
f 39/1/2 36/1/2 40/1/2
f 41/2/2 42/2/2 43/2/2
f 43/2/2 42/2/2 44/2/2
f 45/1/2 46/1/2 47/1/2
f 47/1/2 46/1/2 48/1/2
f 51/1/3 50/1/3 49/1/3
f 52/1/3 50/1/3 51/1/3
f 55/2/3 54/2/3 53/2/3
f 56/2/3 54/2/3 55/2/3
f 59/2/3 58/2/3 57/2/3
f 60/2/3 58/2/3 59/2/3
f 63/1/3 62/1/3 61/1/3
f 64/1/3 62/1/3 63/1/3
f 66/1/3 62/1/3 64/1/3
f 67/1/3 66/1/3 65/1/3
f 68/1/3 62/1/3 66/1/3
f 68/1/3 66/1/3 67/1/3
f 71/1/3 70/1/3 69/1/3
f 72/1/3 70/1/3 71/1/3
f 73/1/4 74/1/4 75/1/4
f 75/1/4 74/1/4 76/1/4
f 77/1/4 78/1/4 79/1/4
f 79/1/4 78/1/4 80/1/4
f 77/1/4 79/1/4 81/1/4
f 80/1/4 78/1/4 82/1/4
f 77/1/4 81/1/4 83/1/4
f 81/1/4 82/1/4 83/1/4
f 82/1/4 78/1/4 84/1/4
f 83/1/4 82/1/4 84/1/4
f 85/2/4 86/2/4 87/2/4
f 87/2/4 86/2/4 88/2/4
f 89/2/4 90/2/4 91/2/4
f 91/2/4 90/2/4 92/2/4
f 93/1/4 94/1/4 95/1/4
f 95/1/4 94/1/4 96/1/4
f 99/1/5 98/1/5 97/1/5
f 100/1/5 98/1/5 99/1/5
f 103/2/5 102/2/5 101/2/5
f 104/2/5 102/2/5 103/2/5
f 105/1/6 106/1/6 107/1/6
f 107/1/6 106/1/6 108/1/6
f 105/1/6 107/1/6 109/1/6
f 109/1/6 107/1/6 110/1/6
f 105/1/6 109/1/6 111/1/6
f 111/1/6 109/1/6 112/1/6
f 110/1/6 107/1/6 113/1/6
f 113/1/6 107/1/6 114/1/6
f 114/1/6 107/1/6 116/1/6
f 115/1/6 116/1/6 117/1/6
f 116/1/6 107/1/6 118/1/6
f 117/1/6 116/1/6 118/1/6
f 118/1/6 107/1/6 120/1/6
f 120/1/6 107/1/6 121/1/6
f 119/1/6 120/1/6 121/1/6
f 108/1/6 106/1/6 122/1/6
f 119/1/6 121/1/6 123/1/6
f 121/1/6 122/1/6 123/1/6
f 122/1/6 106/1/6 124/1/6
f 123/1/6 122/1/6 124/1/6
f 125/2/6 126/2/6 127/2/6
f 127/2/6 126/2/6 128/2/6
f 129/2/6 130/2/6 131/2/6
f 131/2/6 130/2/6 132/2/6
f 133/2/6 134/2/6 135/2/6
f 135/2/6 134/2/6 136/2/6
f 137/1/6 138/1/6 139/1/6
f 139/1/6 138/1/6 140/1/6
f 141/1/6 142/1/6 143/1/6
f 143/1/6 142/1/6 144/1/6
